%TF.GenerationSoftware,KiCad,Pcbnew,(6.0.10)*%
%TF.CreationDate,2023-02-16T14:38:27-08:00*%
%TF.ProjectId,lab4_ex2,6c616234-5f65-4783-922e-6b696361645f,rev?*%
%TF.SameCoordinates,Original*%
%TF.FileFunction,Copper,L1,Top*%
%TF.FilePolarity,Positive*%
%FSLAX46Y46*%
G04 Gerber Fmt 4.6, Leading zero omitted, Abs format (unit mm)*
G04 Created by KiCad (PCBNEW (6.0.10)) date 2023-02-16 14:38:27*
%MOMM*%
%LPD*%
G01*
G04 APERTURE LIST*
G04 Aperture macros list*
%AMRoundRect*
0 Rectangle with rounded corners*
0 $1 Rounding radius*
0 $2 $3 $4 $5 $6 $7 $8 $9 X,Y pos of 4 corners*
0 Add a 4 corners polygon primitive as box body*
4,1,4,$2,$3,$4,$5,$6,$7,$8,$9,$2,$3,0*
0 Add four circle primitives for the rounded corners*
1,1,$1+$1,$2,$3*
1,1,$1+$1,$4,$5*
1,1,$1+$1,$6,$7*
1,1,$1+$1,$8,$9*
0 Add four rect primitives between the rounded corners*
20,1,$1+$1,$2,$3,$4,$5,0*
20,1,$1+$1,$4,$5,$6,$7,0*
20,1,$1+$1,$6,$7,$8,$9,0*
20,1,$1+$1,$8,$9,$2,$3,0*%
G04 Aperture macros list end*
%ADD10C,0.300000*%
%TA.AperFunction,NonConductor*%
%ADD11C,0.300000*%
%TD*%
%TA.AperFunction,SMDPad,CuDef*%
%ADD12RoundRect,0.250000X-0.450000X0.350000X-0.450000X-0.350000X0.450000X-0.350000X0.450000X0.350000X0*%
%TD*%
%TA.AperFunction,SMDPad,CuDef*%
%ADD13RoundRect,0.250000X0.450000X-0.350000X0.450000X0.350000X-0.450000X0.350000X-0.450000X-0.350000X0*%
%TD*%
%TA.AperFunction,SMDPad,CuDef*%
%ADD14RoundRect,0.250000X0.425000X-0.537500X0.425000X0.537500X-0.425000X0.537500X-0.425000X-0.537500X0*%
%TD*%
%TA.AperFunction,SMDPad,CuDef*%
%ADD15RoundRect,0.250001X0.624999X-0.462499X0.624999X0.462499X-0.624999X0.462499X-0.624999X-0.462499X0*%
%TD*%
%TA.AperFunction,SMDPad,CuDef*%
%ADD16RoundRect,0.150000X-0.825000X-0.150000X0.825000X-0.150000X0.825000X0.150000X-0.825000X0.150000X0*%
%TD*%
%TA.AperFunction,SMDPad,CuDef*%
%ADD17R,2.290000X3.000000*%
%TD*%
%TA.AperFunction,ComponentPad*%
%ADD18R,3.000000X3.000000*%
%TD*%
%TA.AperFunction,ComponentPad*%
%ADD19C,3.000000*%
%TD*%
%TA.AperFunction,SMDPad,CuDef*%
%ADD20RoundRect,0.250001X-0.624999X0.462499X-0.624999X-0.462499X0.624999X-0.462499X0.624999X0.462499X0*%
%TD*%
%TA.AperFunction,ViaPad*%
%ADD21C,0.800000*%
%TD*%
%TA.AperFunction,Conductor*%
%ADD22C,0.250000*%
%TD*%
G04 APERTURE END LIST*
D10*
D11*
X154440000Y-89435714D02*
X154511428Y-89507142D01*
X154440000Y-89578571D01*
X154368571Y-89507142D01*
X154440000Y-89435714D01*
X154440000Y-89578571D01*
X154440000Y-88650000D02*
X154511428Y-88721428D01*
X154440000Y-88792857D01*
X154368571Y-88721428D01*
X154440000Y-88650000D01*
X154440000Y-88792857D01*
X155582857Y-90150000D02*
X155511428Y-90078571D01*
X155368571Y-89864285D01*
X155297142Y-89721428D01*
X155225714Y-89507142D01*
X155154285Y-89150000D01*
X155154285Y-88864285D01*
X155225714Y-88507142D01*
X155297142Y-88292857D01*
X155368571Y-88150000D01*
X155511428Y-87935714D01*
X155582857Y-87864285D01*
D12*
%TO.P,R2,1*%
%TO.N,Net-(R1-Pad2)*%
X154940000Y-101140000D03*
%TO.P,R2,2*%
%TO.N,/pin_2*%
X154940000Y-103140000D03*
%TD*%
D13*
%TO.P,R4,1*%
%TO.N,/pin_3*%
X139700000Y-103540000D03*
%TO.P,R4,2*%
%TO.N,Net-(D2-Pad2)*%
X139700000Y-101540000D03*
%TD*%
%TO.P,R3,1*%
%TO.N,Net-(D1-Pad1)*%
X139700000Y-108620000D03*
%TO.P,R3,2*%
%TO.N,/pin_3*%
X139700000Y-106620000D03*
%TD*%
D12*
%TO.P,R1,1*%
%TO.N,+9V*%
X154645000Y-93838808D03*
%TO.P,R1,2*%
%TO.N,Net-(R1-Pad2)*%
X154645000Y-95838808D03*
%TD*%
D14*
%TO.P,C1,1*%
%TO.N,/pin_2*%
X139700000Y-98897500D03*
%TO.P,C1,2*%
%TO.N,GND*%
X139700000Y-96022500D03*
%TD*%
D15*
%TO.P,D1,1,K*%
%TO.N,Net-(D1-Pad1)*%
X154940000Y-108707500D03*
%TO.P,D1,2,A*%
%TO.N,+9V*%
X154940000Y-105732500D03*
%TD*%
D16*
%TO.P,U1,1,GND*%
%TO.N,GND*%
X144845000Y-102235000D03*
%TO.P,U1,2,TR*%
%TO.N,/pin_2*%
X144845000Y-103505000D03*
%TO.P,U1,3,Q*%
%TO.N,/pin_3*%
X144845000Y-104775000D03*
%TO.P,U1,4,R*%
%TO.N,/9V*%
X144845000Y-106045000D03*
%TO.P,U1,5,CV*%
%TO.N,Net-(C2-Pad1)*%
X149795000Y-106045000D03*
%TO.P,U1,6,THR*%
%TO.N,/pin_2*%
X149795000Y-104775000D03*
%TO.P,U1,7,DIS*%
%TO.N,Net-(R1-Pad2)*%
X149795000Y-103505000D03*
%TO.P,U1,8,VCC*%
%TO.N,+9V*%
X149795000Y-102235000D03*
D17*
%TO.P,U1,9*%
%TO.N,/pin_2*%
X147320000Y-104140000D03*
%TD*%
D18*
%TO.P,J1,1,Pin_1*%
%TO.N,+9V*%
X149860000Y-93980000D03*
D19*
%TO.P,J1,2,Pin_2*%
%TO.N,GND*%
X144780000Y-93980000D03*
%TD*%
D20*
%TO.P,D2,1,K*%
%TO.N,GND*%
X139700000Y-90892500D03*
%TO.P,D2,2,A*%
%TO.N,Net-(D2-Pad2)*%
X139700000Y-93867500D03*
%TD*%
D21*
%TO.N,GND*%
X147320000Y-99060000D03*
%TO.N,Net-(C2-Pad1)*%
X152400000Y-106680000D03*
%TD*%
D22*
%TO.N,/pin_2*%
X154940000Y-103140000D02*
X153305000Y-104775000D01*
X149160000Y-104140000D02*
X149795000Y-104775000D01*
X144845000Y-103505000D02*
X145480000Y-104140000D01*
X144845000Y-103505000D02*
X144307500Y-103505000D01*
X153305000Y-104775000D02*
X149795000Y-104775000D01*
X147320000Y-104140000D02*
X149160000Y-104140000D01*
X144307500Y-103505000D02*
X139700000Y-98897500D01*
X145480000Y-104140000D02*
X147320000Y-104140000D01*
%TO.N,GND*%
X147320000Y-99060000D02*
X144780000Y-99060000D01*
X144780000Y-102170000D02*
X144845000Y-102235000D01*
X144780000Y-93980000D02*
X144780000Y-99060000D01*
X142737500Y-96022500D02*
X144780000Y-93980000D01*
X144780000Y-93980000D02*
X141692500Y-90892500D01*
X141692500Y-90892500D02*
X139700000Y-90892500D01*
X139700000Y-96022500D02*
X142737500Y-96022500D01*
X144780000Y-99060000D02*
X144780000Y-102170000D01*
%TO.N,Net-(C2-Pad1)*%
X150430000Y-106680000D02*
X152400000Y-106680000D01*
X149795000Y-106045000D02*
X150430000Y-106680000D01*
%TO.N,Net-(D1-Pad1)*%
X154852500Y-108620000D02*
X139700000Y-108620000D01*
X154940000Y-108707500D02*
X154852500Y-108620000D01*
%TO.N,+9V*%
X154940000Y-93980000D02*
X155965000Y-95005000D01*
X149860000Y-93980000D02*
X154940000Y-93980000D01*
X155965000Y-95005000D02*
X155965000Y-104707500D01*
X149860000Y-102170000D02*
X149795000Y-102235000D01*
X149860000Y-93980000D02*
X149860000Y-102170000D01*
X155965000Y-104707500D02*
X154940000Y-105732500D01*
%TO.N,Net-(D2-Pad2)*%
X138700000Y-94867500D02*
X138700000Y-100540000D01*
X138700000Y-100540000D02*
X139700000Y-101540000D01*
X139700000Y-93867500D02*
X138700000Y-94867500D01*
%TO.N,Net-(R1-Pad2)*%
X152575000Y-103505000D02*
X149795000Y-103505000D01*
X154645000Y-100845000D02*
X154940000Y-101140000D01*
X154940000Y-101140000D02*
X152575000Y-103505000D01*
X154645000Y-95838808D02*
X154645000Y-100845000D01*
%TO.N,/pin_3*%
X140935000Y-104775000D02*
X144845000Y-104775000D01*
X139700000Y-103540000D02*
X140935000Y-104775000D01*
X139700000Y-106620000D02*
X139700000Y-103540000D01*
%TD*%
M02*
