%TF.GenerationSoftware,KiCad,Pcbnew,(6.0.10)*%
%TF.CreationDate,2023-02-16T14:38:27-08:00*%
%TF.ProjectId,lab4_ex2,6c616234-5f65-4783-922e-6b696361645f,rev?*%
%TF.SameCoordinates,Original*%
%TF.FileFunction,Legend,Top*%
%TF.FilePolarity,Positive*%
%FSLAX46Y46*%
G04 Gerber Fmt 4.6, Leading zero omitted, Abs format (unit mm)*
G04 Created by KiCad (PCBNEW (6.0.10)) date 2023-02-16 14:38:27*
%MOMM*%
%LPD*%
G01*
G04 APERTURE LIST*
%ADD10C,0.150000*%
%ADD11C,0.120000*%
G04 APERTURE END LIST*
D10*
%TO.C,R2*%
X157042380Y-102306666D02*
X156566190Y-102640000D01*
X157042380Y-102878095D02*
X156042380Y-102878095D01*
X156042380Y-102497142D01*
X156090000Y-102401904D01*
X156137619Y-102354285D01*
X156232857Y-102306666D01*
X156375714Y-102306666D01*
X156470952Y-102354285D01*
X156518571Y-102401904D01*
X156566190Y-102497142D01*
X156566190Y-102878095D01*
X156137619Y-101925714D02*
X156090000Y-101878095D01*
X156042380Y-101782857D01*
X156042380Y-101544761D01*
X156090000Y-101449523D01*
X156137619Y-101401904D01*
X156232857Y-101354285D01*
X156328095Y-101354285D01*
X156470952Y-101401904D01*
X157042380Y-101973333D01*
X157042380Y-101354285D01*
%TO.C,R4*%
X138502380Y-102706666D02*
X138026190Y-103040000D01*
X138502380Y-103278095D02*
X137502380Y-103278095D01*
X137502380Y-102897142D01*
X137550000Y-102801904D01*
X137597619Y-102754285D01*
X137692857Y-102706666D01*
X137835714Y-102706666D01*
X137930952Y-102754285D01*
X137978571Y-102801904D01*
X138026190Y-102897142D01*
X138026190Y-103278095D01*
X137835714Y-101849523D02*
X138502380Y-101849523D01*
X137454761Y-102087619D02*
X138169047Y-102325714D01*
X138169047Y-101706666D01*
%TO.C,R3*%
X138502380Y-107786666D02*
X138026190Y-108120000D01*
X138502380Y-108358095D02*
X137502380Y-108358095D01*
X137502380Y-107977142D01*
X137550000Y-107881904D01*
X137597619Y-107834285D01*
X137692857Y-107786666D01*
X137835714Y-107786666D01*
X137930952Y-107834285D01*
X137978571Y-107881904D01*
X138026190Y-107977142D01*
X138026190Y-108358095D01*
X137502380Y-107453333D02*
X137502380Y-106834285D01*
X137883333Y-107167619D01*
X137883333Y-107024761D01*
X137930952Y-106929523D01*
X137978571Y-106881904D01*
X138073809Y-106834285D01*
X138311904Y-106834285D01*
X138407142Y-106881904D01*
X138454761Y-106929523D01*
X138502380Y-107024761D01*
X138502380Y-107310476D01*
X138454761Y-107405714D01*
X138407142Y-107453333D01*
%TO.C,R1*%
X156747380Y-95005474D02*
X156271190Y-95338808D01*
X156747380Y-95576903D02*
X155747380Y-95576903D01*
X155747380Y-95195950D01*
X155795000Y-95100712D01*
X155842619Y-95053093D01*
X155937857Y-95005474D01*
X156080714Y-95005474D01*
X156175952Y-95053093D01*
X156223571Y-95100712D01*
X156271190Y-95195950D01*
X156271190Y-95576903D01*
X156747380Y-94053093D02*
X156747380Y-94624522D01*
X156747380Y-94338808D02*
X155747380Y-94338808D01*
X155890238Y-94434046D01*
X155985476Y-94529284D01*
X156033095Y-94624522D01*
%TO.C,C1*%
X138307142Y-97626666D02*
X138354761Y-97674285D01*
X138402380Y-97817142D01*
X138402380Y-97912380D01*
X138354761Y-98055238D01*
X138259523Y-98150476D01*
X138164285Y-98198095D01*
X137973809Y-98245714D01*
X137830952Y-98245714D01*
X137640476Y-98198095D01*
X137545238Y-98150476D01*
X137450000Y-98055238D01*
X137402380Y-97912380D01*
X137402380Y-97817142D01*
X137450000Y-97674285D01*
X137497619Y-97626666D01*
X138402380Y-96674285D02*
X138402380Y-97245714D01*
X138402380Y-96960000D02*
X137402380Y-96960000D01*
X137545238Y-97055238D01*
X137640476Y-97150476D01*
X137688095Y-97245714D01*
%TO.C,D1*%
X153572380Y-107958095D02*
X152572380Y-107958095D01*
X152572380Y-107720000D01*
X152620000Y-107577142D01*
X152715238Y-107481904D01*
X152810476Y-107434285D01*
X153000952Y-107386666D01*
X153143809Y-107386666D01*
X153334285Y-107434285D01*
X153429523Y-107481904D01*
X153524761Y-107577142D01*
X153572380Y-107720000D01*
X153572380Y-107958095D01*
X153572380Y-106434285D02*
X153572380Y-107005714D01*
X153572380Y-106720000D02*
X152572380Y-106720000D01*
X152715238Y-106815238D01*
X152810476Y-106910476D01*
X152858095Y-107005714D01*
%TO.C,U1*%
X146558095Y-100192380D02*
X146558095Y-101001904D01*
X146605714Y-101097142D01*
X146653333Y-101144761D01*
X146748571Y-101192380D01*
X146939047Y-101192380D01*
X147034285Y-101144761D01*
X147081904Y-101097142D01*
X147129523Y-101001904D01*
X147129523Y-100192380D01*
X148129523Y-101192380D02*
X147558095Y-101192380D01*
X147843809Y-101192380D02*
X147843809Y-100192380D01*
X147748571Y-100335238D01*
X147653333Y-100430476D01*
X147558095Y-100478095D01*
%TO.C,J1*%
X146986666Y-98512380D02*
X146986666Y-99226666D01*
X146939047Y-99369523D01*
X146843809Y-99464761D01*
X146700952Y-99512380D01*
X146605714Y-99512380D01*
X147986666Y-99512380D02*
X147415238Y-99512380D01*
X147700952Y-99512380D02*
X147700952Y-98512380D01*
X147605714Y-98655238D01*
X147510476Y-98750476D01*
X147415238Y-98798095D01*
%TO.C,D2*%
X141972380Y-93118095D02*
X140972380Y-93118095D01*
X140972380Y-92880000D01*
X141020000Y-92737142D01*
X141115238Y-92641904D01*
X141210476Y-92594285D01*
X141400952Y-92546666D01*
X141543809Y-92546666D01*
X141734285Y-92594285D01*
X141829523Y-92641904D01*
X141924761Y-92737142D01*
X141972380Y-92880000D01*
X141972380Y-93118095D01*
X141067619Y-92165714D02*
X141020000Y-92118095D01*
X140972380Y-92022857D01*
X140972380Y-91784761D01*
X141020000Y-91689523D01*
X141067619Y-91641904D01*
X141162857Y-91594285D01*
X141258095Y-91594285D01*
X141400952Y-91641904D01*
X141972380Y-92213333D01*
X141972380Y-91594285D01*
D11*
%TO.C,R2*%
X154205000Y-101912936D02*
X154205000Y-102367064D01*
X155675000Y-101912936D02*
X155675000Y-102367064D01*
%TO.C,R4*%
X138965000Y-102767064D02*
X138965000Y-102312936D01*
X140435000Y-102767064D02*
X140435000Y-102312936D01*
%TO.C,R3*%
X140435000Y-107847064D02*
X140435000Y-107392936D01*
X138965000Y-107847064D02*
X138965000Y-107392936D01*
%TO.C,R1*%
X155380000Y-94611744D02*
X155380000Y-95065872D01*
X153910000Y-94611744D02*
X153910000Y-95065872D01*
%TO.C,C1*%
X138765000Y-99945000D02*
X140635000Y-99945000D01*
X140635000Y-99945000D02*
X140635000Y-95860000D01*
X138765000Y-95860000D02*
X138765000Y-99945000D01*
%TO.C,D1*%
X153805000Y-105620000D02*
X153805000Y-109680000D01*
X156075000Y-109680000D02*
X156075000Y-105620000D01*
X153805000Y-109680000D02*
X156075000Y-109680000D01*
%TO.C,U1*%
X147320000Y-106700000D02*
X145370000Y-106700000D01*
X147320000Y-101580000D02*
X149270000Y-101580000D01*
X147320000Y-101580000D02*
X143870000Y-101580000D01*
X147320000Y-106700000D02*
X149270000Y-106700000D01*
%TO.C,J1*%
X142240000Y-91440000D02*
X152400000Y-91440000D01*
X142240000Y-90170000D02*
X142240000Y-97790000D01*
X152400000Y-97790000D02*
X152400000Y-90170000D01*
X142240000Y-97790000D02*
X152400000Y-97790000D01*
X152400000Y-90170000D02*
X142240000Y-90170000D01*
%TO.C,D2*%
X138565000Y-89920000D02*
X138565000Y-93980000D01*
X140835000Y-89920000D02*
X138565000Y-89920000D01*
X140835000Y-93980000D02*
X140835000Y-89920000D01*
%TD*%
M02*
